#!OML:ASF Y:\EmotionMaleHayes\Project 1\Capture day 1\Session 1\Male1.ASF
:FULLY-SPECIFIED
:DEGREES
193
root 2.61825 18.7216 2.52618 -282.391 72.6884 -274.917
lowerback 18.3201 -3.22508 -10.5585
upperback 4.27602 -5.46663 6.31503
thorax -3.8431 -2.56727 14.2421
lowerneck -20.6787 5.33331 9.85354
upperneck 29.8237 6.14081 -4.90105
head 14.1458 3.23188 -2.49654
rclavicle 5.725e-014 -5.40694e-014
rhumerus -10.0608 -20.2146 2.25107
rradius 62.1124
rwrist -44.4488
rhand -23.4241 -35.5204
rfingers 7.12502
rthumb 3.03358 -65.4785
lclavicle 5.725e-014 -5.40694e-014
lhumerus 16.0368 -11.4734 21.1385
lradius 70.9386
lwrist 7.38281
lhand -48.8096 -48.7863
lfingers 7.12502
lthumb -21.4461 -19.9534
rfemur -65.1873 -6.90921 23.73
rtibia 85.2819
rfoot 3.13653 6.01716
rtoes 3.09169
lfemur 11.2817 14.4208 -45.5559
ltibia 36.471
lfoot 356.621 5.82676
ltoes 9.14312
194
root 2.87771 18.8225 2.39811 -282.14 71.7728 -275.12
lowerback 18.3389 -3.11677 -10.9812
upperback 4.37007 -5.42505 6.02229
thorax -3.74983 -2.55837 14.1397
lowerneck -20.6402 5.07327 9.70904
upperneck 29.6695 5.78084 -4.82748
head 14.0265 3.06757 -2.50996
rclavicle 3.97569e-015 -5.725e-014
rhumerus -13.0911 -18.1557 0.466085
rradius 62.8138
rwrist -44.9919
rhand -23.8031 -35.7626
rfingers 7.12502
rthumb 2.66749 -65.7257
lclavicle 3.97569e-015 -5.725e-014
lhumerus 14.5205 -12.2211 19.9126
lradius 70.1049
lwrist 6.67907
lhand -48.4446 -45.8875
lfingers 7.12502
lthumb -21.0955 -17.0151
rfemur -62.9093 -7.31061 22.562
rtibia 83.9722
rfoot 4.86017 6.35763
rtoes 2.4962
lfemur 10.3782 15.4678 -44.6222
ltibia 39.0167
lfoot 355.073 8.21211
ltoes 2.917
195
root 3.13469 18.9051 2.28385 -281.779 70.823 -275.226
lowerback 18.2622 -2.9626 -11.5688
upperback 4.49109 -5.34354 5.72925
thorax -3.57025 -2.53902 14.1184
lowerneck -20.7286 4.82125 9.47026
upperneck 29.6328 5.4769 -4.79434
head 13.9894 2.91175 -2.51229
rclavicle 4.29375e-014 4.45278e-014
rhumerus -15.8101 -17.0277 -1.78111
rradius 63.0181
rwrist -44.8537
rhand -23.4288 -36.1518
rfingers 7.12502
rthumb 3.02898 -66.11
lclavicle 4.29375e-014 4.45278e-014
lhumerus 12.8971 -13.2722 19.0674
lradius 69.4185
lwrist 6.46245
lhand -47.49 -42.5796
lfingers 7.12502
lthumb -20.1783 -13.6076
rfemur -60.527 -7.65124 21.3446
rtibia 82.0912
rfoot 5.85971 7.15657
rtoes 1.13358
lfemur 9.5083 16.4255 -43.5156
ltibia 41.7721
lfoot 354.305 9.96247
ltoes -0.660973
196
root 3.39401 18.9742 2.17942 -281.07 69.8718 -274.906
lowerback 18.203 -2.81496 -12.1139
upperback 4.63163 -5.26434 5.35219
thorax -3.39197 -2.5209 13.9729
lowerneck -20.9922 4.60962 9.2011
upperneck 29.771 5.20996 -4.68175
head 14.067 2.78033 -2.47006
rclavicle -5.56597e-015 -9.54166e-014
rhumerus -18.4412 -16.7073 -4.44619
rradius 62.7584
rwrist -44.5003
rhand -22.7219 -36.171
rfingers 7.12502
rthumb 3.71165 -66.1185
lclavicle -5.56597e-015 -9.54166e-014
lhumerus 11.4352 -14.6753 18.5258
lradius 68.6096
lwrist 6.67209
lhand -46.4042 -39.5244
lfingers 7.12502
lthumb -19.1344 -10.4456
rfemur -57.9848 -8.16121 20.1143
rtibia 79.8411
rfoot 6.64426 7.60917
rtoes 2.87531
lfemur 8.71204 17.028 -42.3197
ltibia 44.7151
lfoot 353.675 10.0627
ltoes 3.18291
197
root 3.66269 19.0312 2.08636 -280.586 69.241 -274.721
lowerback 18.1924 -2.64816 -12.2896
upperback 4.74743 -5.09418 4.97626
thorax -3.33633 -2.44363 13.6
lowerneck -21.3145 4.34164 8.8777
upperneck 30.1077 4.83572 -4.40501
head 14.2298 2.62482 -2.37367
rclavicle -4.92986e-014 1.90833e-014
rhumerus -21.3544 -16.2135 -7.25234
rradius 62.731
rwrist -44.8288
rhand -23.0071 -35.9972
rfingers 7.12502
rthumb 3.43621 -65.9492
lclavicle -4.92986e-014 1.90833e-014
lhumerus 10.2394 -16.5263 18.3333
lradius 67.6774
lwrist 7.07209
lhand -45.1426 -35.4999
lfingers 7.12502
lthumb -17.9208 -6.30557
rfemur -55.1307 -8.62189 19.2287
rtibia 77.1094
rfoot 7.05426 8.75826
rtoes 5.20232
lfemur 8.08661 17.3638 -40.6147
ltibia 47.2925
lfoot 353.604 10.3213
ltoes 7.78599
198
root 3.9383 19.0764 2.00415 -280.842 68.8101 -275.306
lowerback 18.1229 -2.38972 -12.3202
upperback 4.81614 -4.7757 4.60722
thorax -3.36112 -2.28406 13.1243
lowerneck -21.5016 4.02423 8.6129
upperneck 30.495 4.38157 -4.10767
head 14.3849 2.45114 -2.29544
rclavicle -3.26007e-014 -2.8625e-014
rhumerus -24.5118 -15.4163 -10.1231
rradius 62.9163
rwrist -45.1707
rhand -23.2459 -35.9466
rfingers 7.12502
rthumb 3.2056 -65.9023
lclavicle -3.26007e-014 -2.8625e-014
lhumerus 9.22974 -18.6168 18.5639
lradius 66.6095
lwrist 7.6643
lhand -43.8346 -31.5199
lfingers 7.12502
lthumb -16.6619 -2.21506
rfemur -52.2031 -8.77109 18.672
rtibia 74.0325
rfoot 6.67446 10.3378
rtoes 3.81569
lfemur 7.55791 17.8558 -38.4354
ltibia 49.4786
lfoot 353.602 10.4396
ltoes 9.92236
199
root 4.22795 19.111 1.93091 -279.127 68.544 -273.856
lowerback 17.9828 -2.40217 -12.253
upperback 4.79457 -4.79192 4.24329
thorax -3.35142 -2.29004 12.6508
lowerneck -21.5861 3.70457 8.48032
upperneck 30.8747 3.92 -3.91063
head 14.5248 2.27958 -2.28279
rclavicle 1.11319e-014 -6.36111e-015
rhumerus -27.7473 -14.8277 -13.0797
rradius 62.9584
rwrist -44.9397
rhand -22.5306 -35.9723
rfingers 7.12502
rthumb 3.89636 -65.9165
lclavicle 1.11319e-014 -6.36111e-015
lhumerus 8.23944 -20.7285 19.3015
lradius 65.4986
lwrist 8.51327
lhand -42.4033 -28.519
lfingers 7.12502
lthumb -15.2836 0.896353
rfemur -49.1165 -9.63579 18.0905
rtibia 70.4709
rfoot 6.11471 11.2728
rtoes 4.28408
lfemur 7.21509 17.5952 -36.0313
ltibia 51.7661
lfoot 354.104 10.3147
ltoes 15.6246
